<svg xmlns="http://www.w3.org/2000/svg"><symbol id="iconTG" viewBox="0 0 13 11"><path fill-rule="evenodd" clip-rule="evenodd" d="M10.993.568a.873.873 0 011.201.947l-1.32 8.013a1.151 1.151 0 01-1.686.83 34.044 34.044 0 01-2.265-1.335c-.396-.26-1.61-1.09-1.46-1.68.128-.505 2.166-2.402 3.331-3.53.457-.444.249-.7-.291-.292C7.162 4.533 5.01 6.073 4.298 6.506c-.628.382-.955.447-1.347.382a8.924 8.924 0 01-1.916-.527c-.73-.303-.695-1.307-.001-1.6l9.96-4.193z" fill="#18A9E6"/></symbol><symbol id="iconWhatsApp" viewBox="0 0 13 13"><path d="M6.5.5a6 6 0 11-3.018 11.187l-2.98.813.812-2.98A6 6 0 016.5.5zM4.455 3.68l-.12.005a.577.577 0 00-.223.06.776.776 0 00-.176.137c-.072.067-.113.126-.157.183a1.638 1.638 0 00-.34 1.007c.002.294.078.58.198.848.246.541.65 1.114 1.182 1.645.129.128.255.256.39.376a5.669 5.669 0 002.304 1.227l.341.052c.111.006.222-.002.334-.007.175-.01.345-.057.5-.139a3.1 3.1 0 00.23-.132s.025-.017.074-.054a1.38 1.38 0 00.198-.173.688.688 0 00.126-.181c.047-.098.094-.284.113-.44.015-.119.01-.183.009-.224-.003-.064-.056-.13-.114-.159l-.35-.156s-.522-.228-.84-.373a.298.298 0 00-.106-.024.29.29 0 00-.227.076c-.003-.001-.043.033-.477.558a.21.21 0 01-.221.078.86.86 0 01-.115-.04c-.074-.03-.1-.042-.15-.064a3.615 3.615 0 01-.946-.602c-.075-.066-.146-.138-.218-.207a3.778 3.778 0 01-.612-.761l-.035-.057a.553.553 0 01-.061-.123c-.023-.088.036-.16.036-.16s.146-.159.214-.245c.066-.084.122-.166.158-.224.07-.114.093-.231.056-.322-.168-.41-.342-.819-.521-1.224-.036-.08-.14-.138-.236-.15l-.097-.01a2.03 2.03 0 00-.242.003l.12-.005.001.001z" fill="#60D76A"/></symbol><symbol id="iconEmail" viewBox="0 0 15 15"><path d="M3.458 1.5h8.084A1.958 1.958 0 0113.5 3.458v8.084a1.958 1.958 0 01-1.958 1.958H3.458A1.958 1.958 0 011.5 11.542V3.458A1.958 1.958 0 013.458 1.5z" fill="#005FF9"/><path d="M8.631 7.502a1.128 1.128 0 11-2.256 0 1.128 1.128 0 012.256 0zM7.503 3.75a3.752 3.752 0 102.113 6.85l.011-.007-.505-.587-.009.005a2.986 2.986 0 111.304-1.866.557.557 0 01-.568.49.48.48 0 01-.446-.52v-.613a1.9 1.9 0 10-.553 1.337 1.22 1.22 0 001.038.565c.275-.001.542-.091.761-.257.233-.182.402-.432.486-.715.015-.047.043-.157.043-.158V8.27a3.36 3.36 0 00.077-.768A3.756 3.756 0 007.503 3.75z" fill="#FF9E00"/></symbol><symbol id="iconCatalog" viewBox="0 0 20 20"><path d="M5 6.5a1.5 1.5 0 103 0 1.5 1.5 0 00-3 0zm0 7a1.5 1.5 0 103 0 1.5 1.5 0 00-3 0zm7-7a1.5 1.5 0 103 0 1.5 1.5 0 00-3 0zm0 7a1.5 1.5 0 103 0 1.5 1.5 0 00-3 0z" fill="#1a1a1a"/></symbol><symbol id="iconSearch" fill="none" viewBox="0 0 20 20"><path d="M9.167 15.833a6.667 6.667 0 100-13.333 6.667 6.667 0 000 13.333zM17.5 17.5l-3.625-3.625" stroke="#1A1A1A" stroke-linecap="round" stroke-linejoin="round"/></symbol><symbol id="iconLike" viewBox="0 0 20 20"><path d="M17.367 3.842a4.583 4.583 0 00-6.483 0L10 4.725l-.883-.883a4.584 4.584 0 10-6.483 6.483l.883.883L10 17.692l6.484-6.484.883-.883a4.585 4.585 0 000-6.483z" stroke-linecap="round" stroke-linejoin="round"/></symbol><symbol id="iconBasket" fill="none" viewBox="0 0 20 20"><g stroke="#1A1A1A" stroke-linecap="round" stroke-linejoin="round"><path d="M7.835 17.5a.333.333 0 11-.667 0 .333.333 0 01.667 0zm9.164 0a.333.333 0 11-.667 0 .333.333 0 01.667 0z" fill="#1A1A1A"/><path d="M.832.833h3.333L6.4 11.992a1.667 1.667 0 001.666 1.341h8.1a1.667 1.667 0 001.667-1.341L19.165 5H5"/></g></symbol><symbol id="iconClose" fill="none" viewBox="0 0 30 30"><path d="M22.5 7.5l-15 15m0-15l15 15" stroke-linecap="round" stroke-linejoin="round"/></symbol><symbol id="iconArrow" fill="none" viewBox="0 0 16 17"><path d="M4 6.5l4 4 4-4" stroke-linecap="round" stroke-linejoin="round"/></symbol><symbol id="iconStar" viewBox="0 0 12 12"><path d="M3.31 11.356a.5.5 0 01-.757-.53l.655-2.98a.5.5 0 00-.151-.477L.837 5.343a.5.5 0 01.292-.867l2.886-.264a.5.5 0 00.419-.312l1.102-2.744a.5.5 0 01.928 0L7.566 3.9a.5.5 0 00.419.312l2.886.264a.5.5 0 01.292.867l-2.22 2.026a.5.5 0 00-.151.476l.655 2.982a.5.5 0 01-.756.529L6.268 9.818a.5.5 0 00-.536 0l-2.423 1.538z"/></symbol><symbol id="iconPlay" viewBox="0 0 20 20"><path d="M4.166 4.332a1 1 0 011.54-.842l8.818 5.669a1 1 0 010 1.682L5.707 16.51a1 1 0 01-1.541-.84V4.331z" fill="#F6F4F1" stroke="#F6F4F1" stroke-linecap="round" stroke-linejoin="round"/></symbol><symbol id="iconVK" viewBox="0 0 16 11"><path d="M8.763 10.289c-5.416 0-8.505-3.75-8.634-9.99h2.713c.089 4.58 2.089 6.52 3.673 6.92V.299H9.07v3.95c1.564-.17 3.207-1.97 3.762-3.95h2.554c-.425 2.44-2.208 4.24-3.475 4.98 1.267.6 3.297 2.17 4.07 5.01h-2.813c-.603-1.9-2.108-3.37-4.098-3.57v3.57h-.307z"/></symbol><symbol id="iconTG2" viewBox="0 0 15 12"><path fill-rule="evenodd" clip-rule="evenodd" d="M12.592.082a1.048 1.048 0 011.441 1.136l-1.585 9.615c-.154.928-1.171 1.46-2.022.998a40.814 40.814 0 01-2.719-1.604c-.475-.31-1.93-1.307-1.752-2.015.154-.606 2.6-2.883 3.998-4.237.549-.532.298-.839-.35-.35-1.61 1.215-4.192 3.062-5.046 3.582-.753.459-1.146.537-1.615.459a10.708 10.708 0 01-2.3-.633C-.235 6.67-.192 5.465.64 5.114L12.59.082z"/></symbol><symbol id="iconYT" viewBox="0 0 14 12"><path d="M5.6 8.357L9.233 6 5.6 3.643v4.714zm8.092-6.152c.091.37.154.864.196 1.493.049.628.07 1.17.07 1.642L14 6c0 1.72-.112 2.986-.308 3.795-.175.707-.581 1.163-1.211 1.36-.329.101-.931.172-1.855.22a41.58 41.58 0 01-2.513.078L7 11.5c-2.933 0-4.76-.126-5.481-.346-.63-.196-1.036-.652-1.211-1.359-.091-.37-.154-.864-.196-1.493-.049-.628-.07-1.17-.07-1.642L0 6c0-1.72.112-2.986.308-3.795.175-.707.581-1.163 1.211-1.36.329-.101.931-.172 1.855-.22A41.58 41.58 0 015.887.548L7 .5c2.933 0 4.76.126 5.481.346.63.196 1.036.652 1.211 1.359z"/></symbol><symbol id="iconWA" viewBox="0 0 12 12"><path d="M6 0a6 6 0 11-3.018 11.187L.002 12l.812-2.98A6 6 0 016 0zM3.955 3.18l-.12.005a.577.577 0 00-.223.06.776.776 0 00-.176.137c-.072.067-.113.126-.157.183a1.638 1.638 0 00-.34 1.007c.002.294.078.58.198.848.246.541.65 1.114 1.182 1.645.129.128.255.256.39.376a5.669 5.669 0 002.304 1.227l.341.052c.111.006.222-.002.334-.007.175-.01.345-.057.5-.139a3.1 3.1 0 00.23-.132s.025-.017.074-.054a1.38 1.38 0 00.198-.173.688.688 0 00.126-.181c.047-.098.094-.284.113-.44.015-.119.01-.183.009-.224-.003-.064-.056-.13-.114-.159l-.35-.156s-.522-.228-.84-.373a.298.298 0 00-.106-.024.29.29 0 00-.227.076c-.003-.001-.043.033-.477.558a.21.21 0 01-.221.078.86.86 0 01-.115-.04c-.074-.03-.1-.042-.15-.064a3.615 3.615 0 01-.946-.602c-.075-.066-.146-.138-.218-.207a3.778 3.778 0 01-.612-.761l-.035-.057a.553.553 0 01-.061-.123c-.023-.088.036-.16.036-.16s.146-.159.214-.245c.066-.084.122-.166.158-.224.07-.114.093-.231.056-.322-.168-.41-.342-.819-.521-1.224-.036-.08-.14-.138-.236-.15l-.097-.01a2.03 2.03 0 00-.242.003l.12-.005.001.001z"/></symbol><symbol id="iconСhecket" viewBox="0 0 10 8"><path d="M9 1L3.5 6.5 1 4" stroke="#F6F4F1" stroke-width="2" stroke-linecap="round" stroke-linejoin="round"/></symbol><symbol id="iconShare" viewBox="0 0 20 20"><path d="M15 6.667a2.5 2.5 0 100-5 2.5 2.5 0 000 5zM5 12.5a2.5 2.5 0 100-5 2.5 2.5 0 000 5zm10 5.833a2.5 2.5 0 100-5 2.5 2.5 0 000 5zm-7.842-7.075l5.692 3.317m-.009-9.15L7.159 8.742" stroke="#1A1A1A" stroke-width="1.5" stroke-linecap="round" stroke-linejoin="round"/></symbol><symbol id="iconPlus" viewBox="0 0 20 20"><path d="M10 4.167v11.666M4.166 10h11.667" stroke="#1A1A1A" stroke-linecap="round" stroke-linejoin="round"/></symbol><symbol id="iconMinus" viewBox="0 0 20 20"><path d="M4.166 10h11.667" stroke="#1A1A1A" stroke-linecap="round" stroke-linejoin="round"/></symbol><symbol id="iconOK" viewBox="0 0 25 24"><path d="M.5 11.52c0-5.43 0-8.143 1.688-9.832C3.877 0 6.591 0 12.02 0h.962c5.428 0 8.142 0 9.83 1.688C24.5 3.377 24.5 6.091 24.5 11.52v.962c0 5.428 0 8.142-1.688 9.83C21.123 24 18.409 24 12.98 24h-.962c-5.428 0-8.142 0-9.83-1.688C.5 20.623.5 17.909.5 12.48v-.962z" fill="#F70"/><path d="M12.5 11.936c1.175 0 2.233-.47 3.003-1.24a4.24 4.24 0 001.24-3.002 4.22 4.22 0 00-1.24-3.003A4.222 4.222 0 0012.5 3.45c-1.175 0-2.233.47-3.003 1.24a4.222 4.222 0 00-1.24 3.003c0 1.175.471 2.233 1.24 3.002a4.267 4.267 0 003.003 1.24zm-1.357-5.61A1.915 1.915 0 0112.5 5.76c.534 0 1.015.213 1.357.566.353.353.567.833.567 1.357s-.214 1.015-.567 1.357a1.915 1.915 0 01-1.357.566 1.878 1.878 0 01-1.357-.566 1.915 1.915 0 01-.566-1.357c0-.524.213-1.005.566-1.357z" fill="#fff"/><path d="M18.207 13.646l-1.25-1.7c-.075-.095-.203-.106-.3-.031-1.175 1.004-2.617 1.645-4.167 1.645-1.55 0-2.992-.652-4.167-1.646a.209.209 0 00-.3.033l-1.239 1.699a.198.198 0 00.032.267 8.737 8.737 0 003.537 1.72L7.724 20.26a.202.202 0 00.182.289h2.575c.075 0 .15-.043.182-.118l1.838-4.103 1.838 4.103a.198.198 0 00.181.118h2.576c.15 0 .245-.16.17-.289l-2.628-4.627a8.696 8.696 0 003.526-1.72c.086-.064.096-.182.043-.267z" fill="#fff"/></symbol><symbol id="iconCopy" viewBox="0 0 21 20"><g stroke="#1A1A1A" stroke-linecap="round" stroke-linejoin="round"><path d="M17.167 7.5h-7.5C8.747 7.5 8 8.246 8 9.167v7.5c0 .92.746 1.666 1.667 1.666h7.5c.92 0 1.666-.746 1.666-1.666v-7.5c0-.92-.746-1.667-1.666-1.667z"/><path d="M4.666 12.5h-.833a1.667 1.667 0 01-1.667-1.667v-7.5a1.667 1.667 0 011.667-1.666h7.5a1.667 1.667 0 011.666 1.666v.834"/></g></symbol><symbol id="iconBin" viewBox="0 0 20 20"><path d="M2.5 5h15m-1.665 0v11.667a1.667 1.667 0 01-1.667 1.666H5.835a1.667 1.667 0 01-1.667-1.666V5m2.5 0V3.333a1.667 1.667 0 011.667-1.666h3.333a1.667 1.667 0 011.667 1.666V5M8.332 9.167v5m3.336-5v5" stroke="#1A1A1A" stroke-width="1.5" stroke-linecap="round" stroke-linejoin="round"/></symbol><symbol id="iconList" viewBox="0 0 16 16"><path d="M5 2H3a1 1 0 00-1 1v2a1 1 0 001 1h2a1 1 0 001-1V3a1 1 0 00-1-1zm8 0h-2a1 1 0 00-1 1v2a1 1 0 001 1h2a1 1 0 001-1V3a1 1 0 00-1-1zm0 8h-2a1 1 0 00-1 1v2a1 1 0 001 1h2a1 1 0 001-1v-2a1 1 0 00-1-1zm-8 0H3a1 1 0 00-1 1v2a1 1 0 001 1h2a1 1 0 001-1v-2a1 1 0 00-1-1z" stroke-linecap="round" stroke-linejoin="round"/></symbol><symbol id="iconLocation" fill="none" viewBox="0 0 16 16"><g stroke-linecap="round" stroke-linejoin="round"><path d="M14 6.667c0 4.666-6 8.666-6 8.666s-6-4-6-8.666a6 6 0 1112 0z"/><path d="M8 8.667a2 2 0 100-4 2 2 0 000 4z"/></g></symbol></svg>