<svg xmlns="http://www.w3.org/2000/svg"><symbol id="iconLogo" viewBox="0 0 390 125"><g clip-path="url(#clip0_1113_48746)"><path d="M205.591 1.64c116.552 0 182.771 33.176 182.771 59.904 0 26.727-64.963 61.816-181.461 61.816-116.498 0-203.462-27.547-205.209-60.068C-.273 27.492 89.093 1.64 205.591 1.64z" fill="#FCEE21" stroke="#2E3192" stroke-width="6" stroke-miterlimit="10" stroke-linecap="round"/><path d="M81.177 79.307l12.501-33.395h18.78v1.366h-1.474c-1.365 0-2.457.273-3.276.765-.545.328-1.037.93-1.364 1.75-.273.6-.382 2.13-.382 4.645v33.395c0 2.57.109 4.209.382 4.865.273.656.764 1.202 1.528 1.694.765.492 1.802.71 3.112.71h1.474v1.367h-24.02v-1.366h1.474c1.364 0 2.456-.274 3.275-.765.546-.328 1.038-.93 1.365-1.804.273-.601.382-2.186.382-4.7V50.338l-17.633 46.24h-.873L58.522 50.72v35.637c0 2.514.054 4.044.163 4.59.273 1.258.929 2.242 1.911 3.062.983.765 2.511 1.202 4.64 1.202v1.366H49.46v-1.366h.49c1.038 0 1.966-.164 2.84-.547a5.349 5.349 0 002.02-1.53c.436-.656.818-1.53 1.037-2.733.054-.273.054-1.53.054-3.826V54.493c0-2.57-.109-4.154-.382-4.81-.273-.656-.764-1.203-1.528-1.694-.765-.492-1.802-.711-3.112-.711h-1.474v-1.366h18.834l12.938 33.395zm51.48-30.499v20.606h.928c2.893 0 5.022-.984 6.332-3.006 1.31-2.022 2.129-4.974 2.511-8.91h1.311v26.51h-1.311c-.272-2.897-.818-5.248-1.692-7.106-.873-1.858-1.911-3.06-3.057-3.717-1.146-.656-2.839-.929-5.022-.929v14.266c0 2.787.109 4.481.327 5.137.219.601.601 1.148 1.201 1.53.601.383 1.529.602 2.839.602h2.73c4.312 0 7.751-1.093 10.317-3.28 2.566-2.186 4.477-5.52 5.569-10.002h1.255l-2.074 16.124h-39.797v-1.366h1.528c1.31 0 2.402-.274 3.221-.766.601-.328 1.037-.929 1.365-1.803.273-.601.382-2.186.382-4.7V54.656c0-2.296-.055-3.717-.164-4.209-.218-.874-.655-1.53-1.255-2.022-.874-.71-2.02-1.039-3.549-1.039h-1.528v-1.475h38.541v14.976h-1.31c-.655-3.662-1.583-6.286-2.784-7.871-1.201-1.585-2.894-2.788-5.023-3.498-1.255-.437-3.657-.656-7.151-.656h-4.64v-.055zm28.606-2.896h39.742v13.773h-1.31c-.437-2.514-1.147-4.591-2.184-6.23-1.037-1.64-2.238-2.734-3.657-3.335-1.42-.601-3.549-.929-6.442-.929h-8.407v19.731h6.059c6.551 0 11.355 1.257 14.303 3.826 2.948 2.514 4.422 5.903 4.422 10.166 0 2.897-.764 5.357-2.238 7.488-1.529 2.077-3.385 3.662-5.678 4.646-2.292 1.038-5.622 1.53-9.99 1.53h-24.675v-1.366c2.839-.055 4.695-.492 5.459-1.257.819-.765 1.201-2.514 1.201-5.138V54.11c0-2.842-.382-4.7-1.201-5.575-.819-.82-2.62-1.257-5.459-1.257v-1.366h.055zm17.742 26.29v15.303c0 2.405.327 4.1.928 5.084.6.983 1.747 1.475 3.384 1.475 2.675 0 4.641-.984 6.006-2.951 1.364-1.968 2.019-4.427 2.019-7.379 0-2.842-.6-5.247-1.856-7.16-1.201-1.913-2.565-3.17-4.094-3.662-1.474-.492-3.658-.71-6.387-.71zm46.02-23.394v20.606h.928c2.894 0 5.023-.984 6.333-3.006 1.31-2.022 2.129-4.974 2.511-8.91h1.31v26.51h-1.31c-.273-2.897-.819-5.248-1.692-7.106-.874-1.858-1.911-3.06-3.057-3.717-1.147-.656-2.839-.929-5.023-.929v14.266c0 2.787.109 4.481.328 5.137.218.601.6 1.148 1.201 1.53.6.383 1.528.602 2.838.602h2.73c4.313 0 7.752-1.093 10.318-3.28 2.566-2.186 4.476-5.52 5.568-10.002h1.256l-2.075 16.124h-39.742v-1.366h1.528c1.311 0 2.402-.274 3.221-.766.601-.328 1.037-.929 1.365-1.803.273-.601.382-2.186.382-4.7V54.656c0-2.296-.054-3.717-.164-4.209-.218-.874-.655-1.53-1.255-2.022-.874-.71-2.02-1.039-3.549-1.039h-1.528v-1.475h38.541v14.976h-1.31c-.655-3.662-1.583-6.286-2.784-7.871-1.201-1.585-2.893-2.788-5.023-3.498-1.255-.437-3.657-.656-7.151-.656h-4.695v-.055zm76.373-1.53c-2.511 0-4.094.437-4.804 1.312-.71.874-1.092 2.514-1.092 4.864v35.254c0 2.678.382 4.427 1.092 5.247.71.82 2.402 1.202 4.968 1.257v1.366h-23.201v-1.366c1.856 0 3.166-.164 3.93-.492a3.012 3.012 0 001.638-1.64c.328-.765.491-2.131.491-4.099v-39.79h-11.082v15.14c0 6.34-.163 11.15-.436 14.484-.273 3.334-1.038 6.45-2.348 9.456-1.255 2.951-2.948 5.192-4.968 6.722-2.02 1.53-4.258 2.241-6.714 2.241-2.239 0-3.931-.656-5.187-1.913-1.201-1.257-1.856-2.897-1.856-4.755 0-1.585.382-2.842 1.147-3.88.764-.984 1.801-1.53 3.221-1.53 2.62 0 4.039 1.803 4.312 5.355.11 1.586.655 2.405 1.693 2.405 1.419 0 2.948-1.038 4.531-3.17 1.583-2.131 2.675-4.973 3.166-8.69.546-3.662.764-9.019.764-16.014v-9.565c0-2.733-.163-4.537-.436-5.411-.328-.93-.874-1.586-1.747-1.968-.874-.383-2.402-.656-4.695-.71v-1.476h37.449v1.366h.164zm20.854 21.644h6.06c6.551 0 11.355 1.257 14.303 3.826 2.948 2.514 4.422 5.903 4.422 10.166 0 2.897-.765 5.357-2.239 7.488-1.528 2.077-3.384 3.662-5.677 4.646-2.293 1.038-5.623 1.53-9.99 1.53h-24.676v-1.366c2.839-.055 4.695-.492 5.459-1.257.819-.765 1.201-2.514 1.201-5.138V55.15c0-3.608-.327-5.794-.982-6.56-.655-.819-2.457-1.202-5.296-1.256v-1.421h23.693v1.366c-2.184 0-3.603.273-4.313.656-.709.437-1.201.93-1.528 1.585-.328.601-.437 2.186-.437 4.646v14.757zm0 3.28v15.303c0 2.405.328 4.1.928 5.084.601.983 1.747 1.475 3.385 1.475 2.675 0 4.64-.984 6.005-2.951 1.365-1.968 2.02-4.427 2.02-7.379 0-2.842-.601-5.247-1.856-7.16-1.201-1.913-2.566-3.17-4.095-3.662-1.474-.492-3.603-.71-6.387-.71zM185.774 28.53v6.122c0 1.203.055 1.968.218 2.241.11.328.383.547.71.765.328.164.983.274 1.856.274v.601H178.35v-.601c.928 0 1.583-.11 1.91-.274.328-.163.546-.437.71-.765.109-.328.218-1.038.218-2.24V20.277c0-1.203-.054-1.968-.218-2.241-.109-.328-.382-.547-.71-.765-.327-.164-.982-.274-1.856-.274v-.601h8.735c2.893 0 4.968.547 6.223 1.694 1.256 1.148 1.856 2.514 1.856 4.209 0 1.421-.382 2.678-1.201 3.662-.819 1.038-1.91 1.694-3.33 2.077-1.037.328-2.62.492-4.913.492zm0-10.821v9.565c.328 0 .546.054.764.054 1.201 0 2.129-.382 2.784-1.202.656-.765.983-2.022.983-3.662 0-1.64-.327-2.842-.983-3.607-.655-.766-1.637-1.148-2.893-1.148h-.655zm25.658 2.35c0-1.203-.164-2.022-.382-2.405-.273-.437-.874-.601-1.911-.601h-.655v-.601h10.755v.6h-.71c-.928 0-1.529.22-1.856.602-.328.383-.437 1.257-.437 2.569v14.539c0 1.366.164 2.24.437 2.623.327.383.928.601 1.856.601h.71v.602h-10.755v-.602h.655c.928 0 1.529-.218 1.856-.6.273-.383.437-1.258.437-2.57V22.737l-7.097 12.189c0 1.038.109 1.803.382 2.295.219.437.874.71 1.911.71h.71v.602h-10.755v-.601h.655c.928 0 1.529-.219 1.856-.602.273-.382.437-1.257.437-2.568V20.168c0-1.311-.109-2.186-.382-2.569-.218-.382-.874-.6-1.965-.6h-.655v-.602h10.754v.601h-.71c-.928 0-1.528.219-1.801.656-.328.437-.437 1.257-.437 2.514v12.08l7.097-12.189zm19.052 19.621c-2.292 0-4.094-.491-5.513-1.42-1.42-.93-2.457-2.187-3.167-3.826-.709-1.585-1.037-3.17-1.037-4.7 0-3.062.874-6.177 2.62-9.292a20.756 20.756 0 017.097-7.488c3.003-1.859 5.951-2.843 8.844-2.843 1.692 0 3.33.438 4.859 1.312a9.529 9.529 0 013.603 3.608c.873 1.53 1.255 3.115 1.255 4.645 0 3.498-1.091 7.051-3.33 10.55-2.238 3.552-4.749 6.066-7.533 7.651-2.075 1.203-4.641 1.804-7.698 1.804zm8.189-27.874c-1.092 0-2.02.218-2.784.601-.764.383-1.583 1.038-2.402 1.968-.819.929-1.692 2.24-2.511 3.99-.819 1.749-1.693 4.099-2.402 7.05-.765 2.952-1.147 5.466-1.147 7.434 0 1.694.382 2.951 1.092 3.826.71.874 1.692 1.311 2.839 1.311 1.528 0 2.839-.491 3.876-1.53 2.129-2.022 3.876-4.974 5.186-8.854 1.31-3.881 2.02-7.38 2.02-10.385 0-1.913-.382-3.28-1.092-4.154-.71-.82-1.583-1.257-2.675-1.257zm-91.44 5.903c.436-.274 8.188-2.186 8.188-2.186l10.591 24.048h-3.548L147.233 17.71zm11.409-2.569l7.425-.71 4.585 25.087h-3.33l-8.68-24.377zm9.827-.765l3.002 25.087 3.549.055V14.375h-6.551z" fill="#2E3192"/><path d="M138.935 32.138c6.005 5.411 12.501 4.591 17.687 2.678l-4.312-5.684s-2.73 1.64-7.534.984c-4.804-.656-6.442-6.723-4.913-9.565 1.146-2.132 3.166-3.334 4.858-4.154 1.038-.492 8.407-3.06 16.978-3.443 9.554-.438 66.11-.71 66.11-.71h1.474s4.913-2.46 9.717-2.898c4.804-.437-31.553-.656-31.553-.656s-28.169-.218-46.949.547c-9.171.383-15.122 2.569-15.886 2.842 0 0-7.479 1.804-9.553 8.527-2.075 6.613 3.876 11.532 3.876 11.532z" fill="#2E3192"/></g><defs><clipPath id="clip0_1113_48746"><path fill="#fff" d="M0 0h390v125H0z"/></clipPath></defs></symbol><symbol id="iconTG" viewBox="0 0 13 11"><path fill-rule="evenodd" clip-rule="evenodd" d="M10.993.568a.873.873 0 011.201.947l-1.32 8.013a1.151 1.151 0 01-1.686.83 34.044 34.044 0 01-2.265-1.335c-.396-.26-1.61-1.09-1.46-1.68.128-.505 2.166-2.402 3.331-3.53.457-.444.249-.7-.291-.292C7.162 4.533 5.01 6.073 4.298 6.506c-.628.382-.955.447-1.347.382a8.924 8.924 0 01-1.916-.527c-.73-.303-.695-1.307-.001-1.6l9.96-4.193z" fill="#18A9E6"/></symbol><symbol id="iconWhatsApp" viewBox="0 0 13 13"><path d="M6.5.5a6 6 0 11-3.018 11.187l-2.98.813.812-2.98A6 6 0 016.5.5zM4.455 3.68l-.12.005a.577.577 0 00-.223.06.776.776 0 00-.176.137c-.072.067-.113.126-.157.183a1.638 1.638 0 00-.34 1.007c.002.294.078.58.198.848.246.541.65 1.114 1.182 1.645.129.128.255.256.39.376a5.669 5.669 0 002.304 1.227l.341.052c.111.006.222-.002.334-.007.175-.01.345-.057.5-.139a3.1 3.1 0 00.23-.132s.025-.017.074-.054a1.38 1.38 0 00.198-.173.688.688 0 00.126-.181c.047-.098.094-.284.113-.44.015-.119.01-.183.009-.224-.003-.064-.056-.13-.114-.159l-.35-.156s-.522-.228-.84-.373a.298.298 0 00-.106-.024.29.29 0 00-.227.076c-.003-.001-.043.033-.477.558a.21.21 0 01-.221.078.86.86 0 01-.115-.04c-.074-.03-.1-.042-.15-.064a3.615 3.615 0 01-.946-.602c-.075-.066-.146-.138-.218-.207a3.778 3.778 0 01-.612-.761l-.035-.057a.553.553 0 01-.061-.123c-.023-.088.036-.16.036-.16s.146-.159.214-.245c.066-.084.122-.166.158-.224.07-.114.093-.231.056-.322-.168-.41-.342-.819-.521-1.224-.036-.08-.14-.138-.236-.15l-.097-.01a2.03 2.03 0 00-.242.003l.12-.005.001.001z" fill="#60D76A"/></symbol><symbol id="iconEmail" viewBox="0 0 15 15"><path d="M3.458 1.5h8.084A1.958 1.958 0 0113.5 3.458v8.084a1.958 1.958 0 01-1.958 1.958H3.458A1.958 1.958 0 011.5 11.542V3.458A1.958 1.958 0 013.458 1.5z" fill="#005FF9"/><path d="M8.631 7.502a1.128 1.128 0 11-2.256 0 1.128 1.128 0 012.256 0zM7.503 3.75a3.752 3.752 0 102.113 6.85l.011-.007-.505-.587-.009.005a2.986 2.986 0 111.304-1.866.557.557 0 01-.568.49.48.48 0 01-.446-.52v-.613a1.9 1.9 0 10-.553 1.337 1.22 1.22 0 001.038.565c.275-.001.542-.091.761-.257.233-.182.402-.432.486-.715.015-.047.043-.157.043-.158V8.27a3.36 3.36 0 00.077-.768A3.756 3.756 0 007.503 3.75z" fill="#FF9E00"/></symbol><symbol id="iconCatalog" viewBox="0 0 20 20"><path d="M5 6.5a1.5 1.5 0 103 0 1.5 1.5 0 00-3 0zm0 7a1.5 1.5 0 103 0 1.5 1.5 0 00-3 0zm7-7a1.5 1.5 0 103 0 1.5 1.5 0 00-3 0zm0 7a1.5 1.5 0 103 0 1.5 1.5 0 00-3 0z" fill="#1a1a1a"/></symbol><symbol id="iconSearch" fill="none" viewBox="0 0 20 20"><path d="M9.167 15.833a6.667 6.667 0 100-13.333 6.667 6.667 0 000 13.333zM17.5 17.5l-3.625-3.625" stroke="#1A1A1A" stroke-linecap="round" stroke-linejoin="round"/></symbol><symbol id="iconLike" viewBox="0 0 20 20"><path d="M17.367 3.842a4.583 4.583 0 00-6.483 0L10 4.725l-.883-.883a4.584 4.584 0 10-6.483 6.483l.883.883L10 17.692l6.484-6.484.883-.883a4.585 4.585 0 000-6.483z" stroke-linecap="round" stroke-linejoin="round"/></symbol><symbol id="iconBasket" fill="none" viewBox="0 0 20 20"><g stroke="#1A1A1A" stroke-linecap="round" stroke-linejoin="round"><path d="M7.835 17.5a.333.333 0 11-.667 0 .333.333 0 01.667 0zm9.164 0a.333.333 0 11-.667 0 .333.333 0 01.667 0z" fill="#1A1A1A"/><path d="M.832.833h3.333L6.4 11.992a1.667 1.667 0 001.666 1.341h8.1a1.667 1.667 0 001.667-1.341L19.165 5H5"/></g></symbol><symbol id="iconClose" fill="none" viewBox="0 0 30 30"><path d="M22.5 7.5l-15 15m0-15l15 15" stroke-linecap="round" stroke-linejoin="round"/></symbol><symbol id="iconArrow" fill="none" viewBox="0 0 16 17"><path d="M4 6.5l4 4 4-4" stroke-linecap="round" stroke-linejoin="round"/></symbol><symbol id="iconStar" viewBox="0 0 12 12"><path d="M3.31 11.356a.5.5 0 01-.757-.53l.655-2.98a.5.5 0 00-.151-.477L.837 5.343a.5.5 0 01.292-.867l2.886-.264a.5.5 0 00.419-.312l1.102-2.744a.5.5 0 01.928 0L7.566 3.9a.5.5 0 00.419.312l2.886.264a.5.5 0 01.292.867l-2.22 2.026a.5.5 0 00-.151.476l.655 2.982a.5.5 0 01-.756.529L6.268 9.818a.5.5 0 00-.536 0l-2.423 1.538z"/></symbol><symbol id="iconPlay" viewBox="0 0 20 20"><path d="M4.164 4.332a1 1 0 011.54-.842l8.818 5.669a1 1 0 010 1.682L5.705 16.51a1 1 0 01-1.54-.84V4.331z" fill="#F6F4F1" stroke="#F6F4F1" stroke-linecap="round" stroke-linejoin="round"/></symbol><symbol id="iconVK" viewBox="0 0 16 11"><path d="M8.763 10.289c-5.416 0-8.505-3.75-8.634-9.99h2.713c.089 4.58 2.089 6.52 3.673 6.92V.299H9.07v3.95c1.564-.17 3.207-1.97 3.762-3.95h2.554c-.425 2.44-2.208 4.24-3.475 4.98 1.267.6 3.297 2.17 4.07 5.01h-2.813c-.603-1.9-2.108-3.37-4.098-3.57v3.57h-.307z"/></symbol><symbol id="iconTG2" viewBox="0 0 15 12"><path fill-rule="evenodd" clip-rule="evenodd" d="M12.592.082a1.048 1.048 0 011.441 1.136l-1.585 9.615c-.154.928-1.171 1.46-2.022.998a40.814 40.814 0 01-2.719-1.604c-.475-.31-1.93-1.307-1.752-2.015.154-.606 2.6-2.883 3.998-4.237.549-.532.298-.839-.35-.35-1.61 1.215-4.192 3.062-5.046 3.582-.753.459-1.146.537-1.615.459a10.708 10.708 0 01-2.3-.633C-.235 6.67-.192 5.465.64 5.114L12.59.082z"/></symbol><symbol id="iconYT" viewBox="0 0 14 12"><path d="M5.6 8.357L9.233 6 5.6 3.643v4.714zm8.092-6.152c.091.37.154.864.196 1.493.049.628.07 1.17.07 1.642L14 6c0 1.72-.112 2.986-.308 3.795-.175.707-.581 1.163-1.211 1.36-.329.101-.931.172-1.855.22a41.58 41.58 0 01-2.513.078L7 11.5c-2.933 0-4.76-.126-5.481-.346-.63-.196-1.036-.652-1.211-1.359-.091-.37-.154-.864-.196-1.493-.049-.628-.07-1.17-.07-1.642L0 6c0-1.72.112-2.986.308-3.795.175-.707.581-1.163 1.211-1.36.329-.101.931-.172 1.855-.22A41.58 41.58 0 015.887.548L7 .5c2.933 0 4.76.126 5.481.346.63.196 1.036.652 1.211 1.359z"/></symbol><symbol id="iconWA" viewBox="0 0 12 12"><path d="M6 0a6 6 0 11-3.018 11.187L.002 12l.812-2.98A6 6 0 016 0zM3.955 3.18l-.12.005a.577.577 0 00-.223.06.776.776 0 00-.176.137c-.072.067-.113.126-.157.183a1.638 1.638 0 00-.34 1.007c.002.294.078.58.198.848.246.541.65 1.114 1.182 1.645.129.128.255.256.39.376a5.669 5.669 0 002.304 1.227l.341.052c.111.006.222-.002.334-.007.175-.01.345-.057.5-.139a3.1 3.1 0 00.23-.132s.025-.017.074-.054a1.38 1.38 0 00.198-.173.688.688 0 00.126-.181c.047-.098.094-.284.113-.44.015-.119.01-.183.009-.224-.003-.064-.056-.13-.114-.159l-.35-.156s-.522-.228-.84-.373a.298.298 0 00-.106-.024.29.29 0 00-.227.076c-.003-.001-.043.033-.477.558a.21.21 0 01-.221.078.86.86 0 01-.115-.04c-.074-.03-.1-.042-.15-.064a3.615 3.615 0 01-.946-.602c-.075-.066-.146-.138-.218-.207a3.778 3.778 0 01-.612-.761l-.035-.057a.553.553 0 01-.061-.123c-.023-.088.036-.16.036-.16s.146-.159.214-.245c.066-.084.122-.166.158-.224.07-.114.093-.231.056-.322-.168-.41-.342-.819-.521-1.224-.036-.08-.14-.138-.236-.15l-.097-.01a2.03 2.03 0 00-.242.003l.12-.005.001.001z"/></symbol><symbol id="iconСhecket" viewBox="0 0 10 8"><path d="M9 1L3.5 6.5 1 4" stroke="#F6F4F1" stroke-width="2" stroke-linecap="round" stroke-linejoin="round"/></symbol><symbol id="iconShare" viewBox="0 0 20 20"><path d="M15 6.667a2.5 2.5 0 100-5 2.5 2.5 0 000 5zM5 12.5a2.5 2.5 0 100-5 2.5 2.5 0 000 5zm10 5.833a2.5 2.5 0 100-5 2.5 2.5 0 000 5zm-7.842-7.075l5.692 3.317m-.009-9.15L7.159 8.742" stroke="#1A1A1A" stroke-width="1.5" stroke-linecap="round" stroke-linejoin="round"/></symbol><symbol id="iconPlus" viewBox="0 0 20 20"><path d="M10 4.167v11.666M4.166 10h11.667" stroke="#1A1A1A" stroke-linecap="round" stroke-linejoin="round"/></symbol><symbol id="iconMinus" viewBox="0 0 20 20"><path d="M4.166 10h11.667" stroke="#1A1A1A" stroke-linecap="round" stroke-linejoin="round"/></symbol><symbol id="iconOK" viewBox="0 0 25 24"><path d="M.5 11.52c0-5.43 0-8.143 1.688-9.832C3.877 0 6.591 0 12.02 0h.962c5.428 0 8.142 0 9.83 1.688C24.5 3.377 24.5 6.091 24.5 11.52v.962c0 5.428 0 8.142-1.688 9.83C21.123 24 18.409 24 12.98 24h-.962c-5.428 0-8.142 0-9.83-1.688C.5 20.623.5 17.909.5 12.48v-.962z" fill="#F70"/><path d="M12.5 11.936c1.175 0 2.233-.47 3.003-1.24a4.24 4.24 0 001.24-3.002 4.22 4.22 0 00-1.24-3.003A4.222 4.222 0 0012.5 3.45c-1.175 0-2.233.47-3.003 1.24a4.222 4.222 0 00-1.24 3.003c0 1.175.471 2.233 1.24 3.002a4.267 4.267 0 003.003 1.24zm-1.357-5.61A1.915 1.915 0 0112.5 5.76c.534 0 1.015.213 1.357.566.353.353.567.833.567 1.357s-.214 1.015-.567 1.357a1.915 1.915 0 01-1.357.566 1.878 1.878 0 01-1.357-.566 1.915 1.915 0 01-.566-1.357c0-.524.213-1.005.566-1.357z" fill="#fff"/><path d="M18.207 13.646l-1.25-1.7c-.075-.095-.203-.106-.3-.031-1.175 1.004-2.617 1.645-4.167 1.645-1.55 0-2.992-.652-4.167-1.646a.209.209 0 00-.3.033l-1.239 1.699a.198.198 0 00.032.267 8.737 8.737 0 003.537 1.72L7.724 20.26a.202.202 0 00.182.289h2.575c.075 0 .15-.043.182-.118l1.838-4.103 1.838 4.103a.198.198 0 00.181.118h2.576c.15 0 .245-.16.17-.289l-2.628-4.627a8.696 8.696 0 003.526-1.72c.086-.064.096-.182.043-.267z" fill="#fff"/></symbol><symbol id="iconCopy" viewBox="0 0 21 20"><g stroke="#1A1A1A" stroke-linecap="round" stroke-linejoin="round"><path d="M17.167 7.5h-7.5C8.747 7.5 8 8.246 8 9.167v7.5c0 .92.746 1.666 1.667 1.666h7.5c.92 0 1.666-.746 1.666-1.666v-7.5c0-.92-.746-1.667-1.666-1.667z"/><path d="M4.666 12.5h-.833a1.667 1.667 0 01-1.667-1.667v-7.5a1.667 1.667 0 011.667-1.666h7.5a1.667 1.667 0 011.666 1.666v.834"/></g></symbol><symbol id="iconBin" viewBox="0 0 20 20"><path d="M2.5 5h15m-1.665 0v11.667a1.667 1.667 0 01-1.667 1.666H5.835a1.667 1.667 0 01-1.667-1.666V5m2.5 0V3.333a1.667 1.667 0 011.667-1.666h3.333a1.667 1.667 0 011.667 1.666V5M8.332 9.167v5m3.336-5v5" stroke="#1A1A1A" stroke-width="1.5" stroke-linecap="round" stroke-linejoin="round"/></symbol><symbol id="iconList" viewBox="0 0 16 16"><path d="M5 2H3a1 1 0 00-1 1v2a1 1 0 001 1h2a1 1 0 001-1V3a1 1 0 00-1-1zm8 0h-2a1 1 0 00-1 1v2a1 1 0 001 1h2a1 1 0 001-1V3a1 1 0 00-1-1zm0 8h-2a1 1 0 00-1 1v2a1 1 0 001 1h2a1 1 0 001-1v-2a1 1 0 00-1-1zm-8 0H3a1 1 0 00-1 1v2a1 1 0 001 1h2a1 1 0 001-1v-2a1 1 0 00-1-1z" stroke-linecap="round" stroke-linejoin="round"/></symbol><symbol id="iconLocation" fill="none" viewBox="0 0 16 16"><g stroke-linecap="round" stroke-linejoin="round"><path d="M14 6.667c0 4.666-6 8.666-6 8.666s-6-4-6-8.666a6 6 0 1112 0z"/><path d="M8 8.667a2 2 0 100-4 2 2 0 000 4z"/></g></symbol><symbol id="iconBkt" viewBox="0 0 27 24"><path d="M10.194 24H0V13.674c0-1.86.184-3.596.551-5.209.429-1.674 1.04-3.132 1.837-4.372a9.887 9.887 0 013.214-2.977C6.888.372 8.388 0 10.102 0v4.651c-1.04 0-1.898.28-2.571.837-.674.496-1.225 1.179-1.653 2.047-.429.868-.735 1.86-.919 2.977a27.393 27.393 0 00-.183 3.162h5.418V24zM27 24H16.806V13.674c0-1.86.184-3.596.551-5.209.429-1.674 1.041-3.132 1.837-4.372a9.885 9.885 0 013.214-2.977C23.694.372 25.194 0 26.908 0v4.651c-1.04 0-1.898.28-2.571.837-.674.496-1.225 1.179-1.653 2.047-.429.868-.735 1.86-.919 2.977a27.404 27.404 0 00-.183 3.162H27V24z"/></symbol><symbol id="iconDelivery" viewBox="0 0 24 24" fill="none"><path d="M16 3H1v13h15V3zm0 5h4l3 3v5h-7V8zM5.5 21a2.5 2.5 0 100-5 2.5 2.5 0 000 5zm13 0a2.5 2.5 0 100-5 2.5 2.5 0 000 5z" stroke="#1A1A1A" stroke-width="2" stroke-linecap="round" stroke-linejoin="round"/></symbol><symbol id="iconPrice" viewBox="0 0 24 24" fill="none"><path d="M20.59 13.41l-7.17 7.17a1.998 1.998 0 01-2.83 0L2 12V2h10l8.59 8.59a2 2 0 010 2.82zM7 7h.01" stroke="#1A1A1A" stroke-width="2" stroke-linecap="round" stroke-linejoin="round"/></symbol><symbol id="iconAssortment" viewBox="0 0 24 24" fill="none"><path d="M9 22a1 1 0 100-2 1 1 0 000 2zm11 0a1 1 0 100-2 1 1 0 000 2zM1 1h4l2.68 13.39a2 2 0 002 1.61h9.72a2 2 0 002-1.61L23 6H6" stroke="#1A1A1A" stroke-width="2" stroke-linecap="round" stroke-linejoin="round"/></symbol><symbol id="iconDiscounts" viewBox="0 0 24 24" fill="none"><path d="M13 2L3 14h9l-1 8 10-12h-9l1-8z" stroke="#1A1A1A" stroke-width="2" stroke-linecap="round" stroke-linejoin="round"/></symbol><symbol id="iconService" viewBox="0 0 24 24" fill="none"><path d="M21 15a2 2 0 01-2 2H7l-4 4V5a2 2 0 012-2h14a2 2 0 012 2v10z" stroke="#1A1A1A" stroke-width="2" stroke-linecap="round" stroke-linejoin="round"/></symbol><symbol id="iconManagers" viewBox="0 0 24 24" fill="none"><path d="M17 21v-2a4 4 0 00-4-4H5a4 4 0 00-4 4v2m8-10a4 4 0 100-8 4 4 0 000 8zm14 10v-2a4 4 0 00-3-3.87m-4-12a4 4 0 010 7.75" stroke="#1A1A1A" stroke-width="2" stroke-linecap="round" stroke-linejoin="round"/></symbol><symbol id="iconGuarantee" viewBox="0 0 24 24" fill="none"><g stroke="#1A1A1A" stroke-width="2" stroke-linecap="round" stroke-linejoin="round"><path d="M12 15a7 7 0 100-14 7 7 0 000 14z"/><path d="M8.21 13.89L7 23l5-3 5 3-1.21-9.12"/></g></symbol><symbol id="iconProvider" viewBox="0 0 24 24" fill="none"><g stroke="#1A1A1A" stroke-width="2" stroke-linecap="round" stroke-linejoin="round"><path d="M16.5 9.4l-9-5.19M21 16V8a2 2 0 00-1-1.73l-7-4a2 2 0 00-2 0l-7 4A2 2 0 003 8v8a2 2 0 001 1.73l7 4a2 2 0 002 0l7-4A2 2 0 0021 16z"/><path d="M3.266 6.96l8.73 5.05 8.73-5.05M12 22.08V12"/></g></symbol><symbol id="iconSeasonal" viewBox="0 0 24 24" fill="none"><g clip-path="url(#clip0_154_14233)" stroke="#1A1A1A" stroke-width="2" stroke-linecap="round" stroke-linejoin="round"><path d="M12 17a5 5 0 100-10 5 5 0 000 10zm0-16v2m0 18v2M4.219 4.22l1.42 1.42M18.36 18.36l1.42 1.42M1 12h2m18 0h2M4.219 19.78l1.42-1.42M18.36 5.64l1.42-1.42"/></g><defs><clipPath id="clip0_154_14233"><path fill="#fff" d="M0 0h24v24H0z"/></clipPath></defs></symbol><symbol id="iconLoyalty" viewBox="0 0 24 24" fill="none"><path d="M12 2l3.09 6.26L22 9.27l-5 4.87 1.18 6.88L12 17.77l-6.18 3.25L7 14.14 2 9.27l6.91-1.01L12 2z" stroke="#1A1A1A" stroke-width="2" stroke-linecap="round" stroke-linejoin="round"/></symbol></svg>