<svg xmlns="http://www.w3.org/2000/svg"><symbol id="iconTG" viewBox="0 0 13 11"><path fill-rule="evenodd" clip-rule="evenodd" d="M10.993.568a.873.873 0 011.201.947l-1.32 8.013a1.151 1.151 0 01-1.686.83 34.044 34.044 0 01-2.265-1.335c-.396-.26-1.61-1.09-1.46-1.68.128-.505 2.166-2.402 3.331-3.53.457-.444.249-.7-.291-.292C7.162 4.533 5.01 6.073 4.298 6.506c-.628.382-.955.447-1.347.382a8.924 8.924 0 01-1.916-.527c-.73-.303-.695-1.307-.001-1.6l9.96-4.193z" fill="#18A9E6"/></symbol><symbol id="iconWhatsApp" viewBox="0 0 13 13"><path d="M6.5.5a6 6 0 11-3.018 11.187l-2.98.813.812-2.98A6 6 0 016.5.5zM4.455 3.68l-.12.005a.577.577 0 00-.223.06.776.776 0 00-.176.137c-.072.067-.113.126-.157.183a1.638 1.638 0 00-.34 1.007c.002.294.078.58.198.848.246.541.65 1.114 1.182 1.645.129.128.255.256.39.376a5.669 5.669 0 002.304 1.227l.341.052c.111.006.222-.002.334-.007.175-.01.345-.057.5-.139a3.1 3.1 0 00.23-.132s.025-.017.074-.054a1.38 1.38 0 00.198-.173.688.688 0 00.126-.181c.047-.098.094-.284.113-.44.015-.119.01-.183.009-.224-.003-.064-.056-.13-.114-.159l-.35-.156s-.522-.228-.84-.373a.298.298 0 00-.106-.024.29.29 0 00-.227.076c-.003-.001-.043.033-.477.558a.21.21 0 01-.221.078.86.86 0 01-.115-.04c-.074-.03-.1-.042-.15-.064a3.615 3.615 0 01-.946-.602c-.075-.066-.146-.138-.218-.207a3.778 3.778 0 01-.612-.761l-.035-.057a.553.553 0 01-.061-.123c-.023-.088.036-.16.036-.16s.146-.159.214-.245c.066-.084.122-.166.158-.224.07-.114.093-.231.056-.322-.168-.41-.342-.819-.521-1.224-.036-.08-.14-.138-.236-.15l-.097-.01a2.03 2.03 0 00-.242.003l.12-.005.001.001z" fill="#60D76A"/></symbol><symbol id="iconCatalog" viewBox="0 0 20 20"><path d="M5 6.5a1.5 1.5 0 103 0 1.5 1.5 0 00-3 0zm0 7a1.5 1.5 0 103 0 1.5 1.5 0 00-3 0zm7-7a1.5 1.5 0 103 0 1.5 1.5 0 00-3 0zm0 7a1.5 1.5 0 103 0 1.5 1.5 0 00-3 0z" fill="#1a1a1a"/></symbol><symbol id="iconSearch" fill="none" viewBox="0 0 20 20"><path d="M9.167 15.833a6.667 6.667 0 100-13.333 6.667 6.667 0 000 13.333zM17.5 17.5l-3.625-3.625" stroke="#1A1A1A" stroke-linecap="round" stroke-linejoin="round"/></symbol><symbol id="iconLike" viewBox="0 0 20 17"><path d="M17.367 1.842a4.583 4.583 0 00-6.483 0L10 2.725l-.883-.883a4.584 4.584 0 10-6.483 6.483l.883.883L10 15.692l6.484-6.484.883-.883a4.584 4.584 0 000-6.483z" stroke-linecap="round" stroke-linejoin="round"/></symbol><symbol id="iconBasket" fill="none" viewBox="0 0 20 20"><g stroke="#1A1A1A" stroke-linecap="round" stroke-linejoin="round"><path d="M7.835 17.5a.333.333 0 11-.667 0 .333.333 0 01.667 0zm9.164 0a.333.333 0 11-.667 0 .333.333 0 01.667 0z" fill="#1A1A1A"/><path d="M.832.833h3.333L6.4 11.992a1.667 1.667 0 001.666 1.341h8.1a1.667 1.667 0 001.667-1.341L19.165 5H5"/></g></symbol><symbol id="iconClose" fill="none" viewBox="0 0 30 30"><path d="M22.5 7.5l-15 15m0-15l15 15" stroke-linecap="round" stroke-linejoin="round"/></symbol><symbol id="iconArrow" fill="none" viewBox="0 0 10 6"><path d="M1 .5l4 4 4-4" stroke="#A5A5A5"/></symbol></svg>