<svg xmlns="http://www.w3.org/2000/svg">

  <symbol id="iconTG"  viewBox="0 0 13 11">
    <g>
      <path fill-rule="evenodd" clip-rule="evenodd" d="M10.9933 0.568413C11.1372 0.507837 11.2947 0.486945 11.4494 0.50791C11.6042 0.528876 11.7505 0.590934 11.8731 0.687624C11.9957 0.784314 12.0902 0.912102 12.1466 1.05769C12.2031 1.20327 12.2195 1.36133 12.1942 1.51542L10.8733 9.52766C10.7451 10.3005 9.89715 10.7437 9.18836 10.3588C8.59546 10.0367 7.71486 9.54047 6.92278 9.02271C6.52673 8.76353 5.31357 7.9336 5.46267 7.34303C5.5908 6.83808 7.62924 4.94058 8.79406 3.81245C9.25126 3.36923 9.04276 3.11355 8.50286 3.52124C7.16156 4.53347 5.00955 6.07279 4.29784 6.5061C3.67 6.88817 3.34269 6.9534 2.95131 6.88817C2.23727 6.76935 1.57507 6.58531 1.03459 6.36108C0.304244 6.05823 0.339771 5.05415 1.03401 4.76178L10.9933 0.568413Z" fill="#18A9E6"/>
    </g>
  </symbol>


  <symbol id="iconWhatsApp"  viewBox="0 0 13 13">
    <g>
      <path d="M6.5 0.5C9.8138 0.5 12.5 3.1862 12.5 6.5C12.5 9.81379 9.8138 12.5 6.5 12.5C5.43967 12.5017 4.398 12.2211 3.48201 11.687L0.502408 12.5L1.31361 9.51919C0.779064 8.60292 0.498237 7.56079 0.500008 6.5C0.500008 3.1862 3.18621 0.5 6.5 0.5ZM4.45521 3.68L4.33521 3.6848C4.25752 3.68953 4.18159 3.70994 4.11201 3.7448C4.04692 3.78166 3.9875 3.82773 3.93561 3.8816C3.86361 3.9494 3.82281 4.0082 3.77901 4.0652C3.55708 4.35374 3.43759 4.70799 3.43941 5.072C3.44061 5.366 3.51741 5.6522 3.63741 5.9198C3.88281 6.461 4.28661 7.034 4.81941 7.565C4.94781 7.6928 5.07381 7.8212 5.20941 7.9406C5.87144 8.52347 6.66036 8.94382 7.5134 9.16819L7.8542 9.22039C7.9652 9.22639 8.0762 9.21799 8.1878 9.21259C8.36255 9.20357 8.53317 9.15626 8.6876 9.07399C8.76618 9.03352 8.84286 8.98948 8.9174 8.94199C8.9174 8.94199 8.9432 8.92519 8.9924 8.88799C9.0734 8.82799 9.1232 8.78539 9.1904 8.71519C9.2402 8.6636 9.2834 8.60299 9.3164 8.53399C9.3632 8.43619 9.41 8.24959 9.4292 8.09419C9.4436 7.97539 9.4394 7.9106 9.4376 7.8704C9.4352 7.8062 9.3818 7.7396 9.3236 7.7114L8.9744 7.5548C8.9744 7.5548 8.4524 7.3274 8.1332 7.1822C8.0998 7.16761 8.06401 7.15927 8.0276 7.1576C7.98655 7.15338 7.94507 7.158 7.90595 7.17114C7.86684 7.18429 7.83098 7.20565 7.8008 7.2338C7.7978 7.2326 7.7576 7.2668 7.3238 7.7924C7.2989 7.82585 7.26461 7.85114 7.22529 7.86503C7.18596 7.87892 7.14339 7.88079 7.103 7.8704C7.06392 7.85991 7.02562 7.84668 6.9884 7.8308C6.914 7.7996 6.8882 7.78759 6.8372 7.766C6.49284 7.61572 6.17402 7.41269 5.8922 7.1642C5.8166 7.0982 5.74641 7.0262 5.67441 6.9566C5.43836 6.73053 5.23264 6.4748 5.06241 6.1958L5.02701 6.1388C5.00158 6.1005 4.98102 6.05918 4.96581 6.0158C4.94301 5.9276 5.00241 5.8568 5.00241 5.8568C5.00241 5.8568 5.14821 5.6972 5.21601 5.6108C5.28201 5.5268 5.3378 5.4452 5.37381 5.387C5.4446 5.273 5.4668 5.156 5.42961 5.0654C5.26161 4.655 5.08761 4.2464 4.90881 3.8408C4.87341 3.7604 4.76841 3.7028 4.67301 3.6914C4.64061 3.6878 4.60821 3.6842 4.57581 3.6818C4.49523 3.67779 4.41449 3.6786 4.33401 3.6842L4.45461 3.6794L4.45521 3.68Z" fill="#60D76A"/>  
    </g>
  </symbol>

    <symbol id="iconEmail"  viewBox="0 0 15 15">
      <g>
        <path d="M3.45814 1.5H11.5419C12.0612 1.5 12.5593 1.7063 12.9265 2.07353C13.2937 2.44075 13.5 2.93881 13.5 3.45814V11.5419C13.5 12.0612 13.2937 12.5593 12.9265 12.9265C12.5593 13.2937 12.0612 13.5 11.5419 13.5H3.45771C2.9385 13.5 2.44054 13.2937 2.0734 12.9266C1.70626 12.5595 1.5 12.0615 1.5 11.5423V3.45814C1.5 2.93881 1.7063 2.44075 2.07353 2.07353C2.44075 1.7063 2.93881 1.5 3.45814 1.5Z" fill="#005FF9"/>
        <path d="M8.63146 7.50171C8.63146 7.7249 8.56528 7.94307 8.44129 8.12864C8.3173 8.3142 8.14106 8.45884 7.93487 8.54425C7.72867 8.62965 7.50178 8.652 7.28289 8.60846C7.064 8.56492 6.86293 8.45745 6.70512 8.29963C6.5473 8.14182 6.43983 7.94075 6.39629 7.72186C6.35275 7.50297 6.37509 7.27608 6.4605 7.06988C6.54591 6.86369 6.69054 6.68745 6.87611 6.56346C7.06168 6.43947 7.27985 6.37329 7.50303 6.37329C7.80221 6.37363 8.08903 6.49262 8.30058 6.70417C8.51213 6.91572 8.63112 7.20254 8.63146 7.50171ZM7.50303 3.75C6.9156 3.74979 6.33633 3.88753 5.81186 4.15213C5.28739 4.41672 4.83238 4.80077 4.48347 5.27336C4.13456 5.74595 3.9015 6.29387 3.80306 6.873C3.70461 7.45212 3.74354 8.04628 3.9167 8.60761C4.08985 9.16894 4.39241 9.68177 4.79999 10.1048C5.20758 10.5278 5.7088 10.8492 6.26331 11.0431C6.81782 11.237 7.41011 11.298 7.9925 11.2212C8.57488 11.1443 9.13109 10.9318 9.61632 10.6007L9.62703 10.5934L9.12175 10.0059L9.11318 10.0114C8.53105 10.3845 7.83754 10.544 7.15093 10.4628C6.46432 10.3816 5.82715 10.0647 5.3481 9.56615C4.86906 9.06761 4.57781 8.41831 4.52404 7.72901C4.47027 7.03971 4.65732 6.35311 5.05326 5.78632C5.44921 5.21952 6.02953 4.80766 6.69525 4.62097C7.36096 4.43428 8.07082 4.48434 8.70375 4.7626C9.33668 5.04086 9.85346 5.53009 10.166 6.14683C10.4784 6.76358 10.5673 7.46964 10.4173 8.14457C10.4006 8.2824 10.333 8.40903 10.2278 8.49964C10.1226 8.59025 9.98739 8.63832 9.84861 8.63443C9.78507 8.63005 9.72303 8.61308 9.66611 8.58451C9.60919 8.55593 9.55852 8.51633 9.51704 8.46799C9.47557 8.41966 9.44412 8.36356 9.42452 8.30296C9.40492 8.24236 9.39757 8.17847 9.40289 8.115V7.50171C9.40359 7.06164 9.25156 6.63496 8.97274 6.29447C8.69392 5.95399 8.30559 5.72081 7.87402 5.63472C7.44244 5.54862 6.99437 5.61496 6.60625 5.82239C6.21813 6.02983 5.91401 6.36552 5.7458 6.77218C5.57758 7.17884 5.55569 7.63127 5.68386 8.05227C5.81203 8.47327 6.08231 8.83675 6.44859 9.08069C6.81487 9.32463 7.25445 9.43391 7.69232 9.38988C8.13019 9.34586 8.53922 9.15126 8.84961 8.83929C8.95165 8.99899 9.08946 9.13275 9.25215 9.22997C9.41483 9.32719 9.59791 9.38521 9.78689 9.39943C9.82032 9.402 9.85418 9.40371 9.88803 9.40371C10.1629 9.40297 10.4301 9.31271 10.6492 9.14657C10.8816 8.9649 11.0514 8.7151 11.1347 8.43214C11.1497 8.38457 11.1776 8.27486 11.1776 8.274V8.27014C11.2333 8.01789 11.2591 7.75999 11.2547 7.50171C11.2536 6.50705 10.858 5.55344 10.1546 4.8501C9.45131 4.14677 8.4977 3.75113 7.50303 3.75Z" fill="#FF9E00"/> 
      </g>
  </symbol>

  <symbol id="iconCatalog"  viewBox="0 0 20 20">
    <g>
      <path d="M5 6.5C5 7.32843 5.67157 8 6.5 8C7.32843 8 8 7.32843 8 6.5C8 5.67157 7.32843 5 6.5 5C5.67157 5 5 5.67157 5 6.5Z" fill="#1a1a1a"/>
      <path d="M5 13.5C5 14.3284 5.67157 15 6.5 15C7.32843 15 8 14.3284 8 13.5C8 12.6716 7.32843 12 6.5 12C5.67157 12 5 12.6716 5 13.5Z" fill="#1a1a1a"/>
      <path d="M12 6.5C12 7.32843 12.6716 8 13.5 8C14.3284 8 15 7.32843 15 6.5C15 5.67157 14.3284 5 13.5 5C12.6716 5 12 5.67157 12 6.5Z" fill="#1a1a1a"/>
      <path d="M12 13.5C12 14.3284 12.6716 15 13.5 15C14.3284 15 15 14.3284 15 13.5C15 12.6716 14.3284 12 13.5 12C12.6716 12 12 12.6716 12 13.5Z" fill="#1a1a1a"/>
    </g>
  </symbol>


   <symbol id="iconSearch" fill="none"  viewBox="0 0 20 20">
    <g>
      <path d="M9.16667 15.8333C12.8486 15.8333 15.8333 12.8486 15.8333 9.16667C15.8333 5.48477 12.8486 2.5 9.16667 2.5C5.48477 2.5 2.5 5.48477 2.5 9.16667C2.5 12.8486 5.48477 15.8333 9.16667 15.8333Z" stroke="#1A1A1A" stroke-linecap="round" stroke-linejoin="round"/>
      <path d="M17.5 17.5L13.875 13.875" stroke="#1A1A1A" stroke-linecap="round" stroke-linejoin="round"/>
    </g>
  </symbol>


   <symbol id="iconLike"   viewBox="0 0 20 20">
    <g>
      <path d="M17.3671 3.84172C16.9415 3.41589 16.4361 3.0781 15.8799 2.84763C15.3237 2.61716 14.7275 2.49854 14.1254 2.49854C13.5234 2.49854 12.9272 2.61716 12.371 2.84763C11.8147 3.0781 11.3094 3.41589 10.8838 3.84172L10.0004 4.72506L9.11709 3.84172C8.25735 2.98198 7.09129 2.49898 5.87542 2.49898C4.65956 2.49898 3.4935 2.98198 2.63376 3.84172C1.77401 4.70147 1.29102 5.86753 1.29102 7.08339C1.29102 8.29925 1.77401 9.46531 2.63376 10.3251L3.51709 11.2084L10.0004 17.6917L16.4838 11.2084L17.3671 10.3251C17.7929 9.89943 18.1307 9.39407 18.3612 8.83785C18.5917 8.28164 18.7103 7.68546 18.7103 7.08339C18.7103 6.48132 18.5917 5.88514 18.3612 5.32893C18.1307 4.77271 17.7929 4.26735 17.3671 3.84172Z"  stroke-linecap="round" stroke-linejoin="round"/>
    </g>
  </symbol>


   <symbol id="iconBasket"  fill="none"  viewBox="0 0 20 20">
    <g>
        <path d="M7.83464 17.4998C7.83464 17.6839 7.6854 17.8332 7.5013 17.8332C7.31721 17.8332 7.16797 17.6839 7.16797 17.4998C7.16797 17.3157 7.31721 17.1665 7.5013 17.1665C7.6854 17.1665 7.83464 17.3157 7.83464 17.4998Z" fill="#1A1A1A" stroke="#1A1A1A" stroke-linecap="round" stroke-linejoin="round"/>
        <path d="M16.9987 17.4998C16.9987 17.6839 16.8495 17.8332 16.6654 17.8332C16.4813 17.8332 16.332 17.6839 16.332 17.4998C16.332 17.3157 16.4813 17.1665 16.6654 17.1665C16.8495 17.1665 16.9987 17.3157 16.9987 17.4998Z" fill="#1A1A1A" stroke="#1A1A1A" stroke-linecap="round" stroke-linejoin="round"/>
        <path d="M0.832031 0.833496H4.16536L6.3987 11.9918C6.4749 12.3755 6.68362 12.7201 6.98832 12.9654C7.29302 13.2107 7.67428 13.341 8.06536 13.3335H16.1654C16.5564 13.341 16.9377 13.2107 17.2424 12.9654C17.5471 12.7201 17.7558 12.3755 17.832 11.9918L19.1654 5.00016H4.9987" stroke="#1A1A1A" stroke-linecap="round" stroke-linejoin="round"/>
    </g>
  </symbol>


   <symbol id="iconClose"  fill="none"  viewBox="0 0 30 30">
    <g>
      <path d="M22.5 7.5L7.5 22.5"  stroke-linecap="round" stroke-linejoin="round"/>
      <path d="M7.5 7.5L22.5 22.5"  stroke-linecap="round" stroke-linejoin="round"/>
    </g>
  </symbol>

   <symbol id="iconArrow"  fill="none"  viewBox="0 0 16 17">
    <g>
      <path d="M4 6.5L8 10.5L12 6.5"  stroke-linecap="round" stroke-linejoin="round"/>
    </g>
  </symbol>


   <symbol id="iconStar" viewBox="0 0 12 12">
    <g>
      <path d="M3.30924 11.356C2.93387 11.5943 2.45743 11.2608 2.55286 10.8266L3.20803 7.84516C3.24638 7.67066 3.1887 7.48896 3.05673 7.36852L0.83728 5.34305C0.516282 5.05011 0.696055 4.51535 1.12883 4.4758L4.01545 4.21204C4.20239 4.19496 4.36401 4.07461 4.43395 3.90041L5.536 1.15563C5.70394 0.737362 6.29606 0.737362 6.464 1.15563L7.56605 3.90041C7.63599 4.07461 7.79761 4.19496 7.98455 4.21204L10.8712 4.4758C11.3039 4.51535 11.4837 5.05011 11.1627 5.34305L8.94327 7.36852C8.8113 7.48896 8.75362 7.67066 8.79197 7.84516L9.44714 10.8266C9.54257 11.2608 9.06613 11.5943 8.69076 11.356L6.26802 9.81756C6.10444 9.71369 5.89556 9.71369 5.73198 9.81756L3.30924 11.356Z" />
    </g>
  </symbol>

   <symbol id="iconPlay" viewBox="0 0 20 20">
    <g>
      <path d="M4.16602 4.33167C4.16602 3.5405 5.04126 3.06266 5.70677 3.49049L14.5242 9.15882C15.1365 9.55246 15.1365 10.4475 14.5242 10.8412L5.70677 16.5095C5.04126 16.9373 4.16602 16.4595 4.16602 15.6683V4.33167Z" fill="#F6F4F1" stroke="#F6F4F1" stroke-linecap="round" stroke-linejoin="round"/>
    </g>
  </symbol>

   <symbol id="iconVK" viewBox="0 0 16 11">
    <g>
      <path d="M8.76256 10.2888C3.34671 10.2888 0.257627 6.53883 0.128906 0.298828H2.84179C2.93089 4.87882 4.93085 6.81881 6.515 7.21882V0.298828H9.06955V4.2488C10.6339 4.0788 12.2773 2.27883 12.8317 0.298828H15.3863C14.9605 2.73884 13.1783 4.53881 11.911 5.2788C13.1783 5.8788 15.2081 7.44881 15.9804 10.2888H13.1684C12.5645 8.38882 11.0596 6.91882 9.06955 6.7188V10.2888H8.76256Z"/>
    </g>
  </symbol>


  <symbol id="iconTG2" viewBox="0 0 15 12">
    <g>
      <path fill-rule="evenodd" clip-rule="evenodd" d="M12.5919 0.0820957C12.7646 0.00940435 12.9537 -0.0156664 13.1393 0.00949259C13.325 0.0346516 13.5006 0.109121 13.6477 0.225149C13.7949 0.341177 13.9082 0.494523 13.976 0.669225C14.0437 0.843927 14.0634 1.0336 14.033 1.2185L12.4479 10.8332C12.2942 11.7606 11.2766 12.2925 10.426 11.8305C9.71455 11.444 8.65783 10.8486 7.70733 10.2272C7.23208 9.91624 5.77628 8.92032 5.9552 8.21164C6.10896 7.6057 8.55509 5.3287 9.95288 3.97494C10.5015 3.44308 10.2513 3.13626 9.60343 3.62549C7.99388 4.84017 5.41146 6.68735 4.55741 7.20733C3.804 7.6658 3.41123 7.74408 2.94157 7.6658C2.08472 7.52323 1.29008 7.30238 0.641507 7.0333C-0.234907 6.66988 -0.192274 5.46498 0.640808 5.11414L12.5919 0.0820957Z"/>
    </g>
  </symbol>


  <symbol id="iconYT" viewBox="0 0 14 12">
    <g>
        <path d="M5.6 8.35714L9.233 6L5.6 3.64286V8.35714ZM13.692 2.205C13.783 2.57429 13.846 3.06929 13.888 3.69786C13.937 4.32643 13.958 4.86857 13.958 5.34L14 6C14 7.72071 13.888 8.98571 13.692 9.795C13.517 10.5021 13.111 10.9579 12.481 11.1543C12.152 11.2564 11.55 11.3271 10.626 11.3743C9.716 11.4293 8.883 11.4529 8.113 11.4529L7 11.5C4.067 11.5 2.24 11.3743 1.519 11.1543C0.889 10.9579 0.483 10.5021 0.308 9.795C0.217 9.42571 0.154 8.93071 0.112 8.30214C0.0630001 7.67357 0.042 7.13143 0.042 6.66L0 6C0 4.27929 0.112 3.01429 0.308 2.205C0.483 1.49786 0.889 1.04214 1.519 0.845714C1.848 0.743571 2.45 0.672857 3.374 0.625714C4.284 0.570714 5.117 0.547143 5.887 0.547143L7 0.5C9.933 0.5 11.76 0.625714 12.481 0.845714C13.111 1.04214 13.517 1.49786 13.692 2.205Z" />
    </g>
  </symbol>


   <symbol id="iconWA" viewBox="0 0 12 12">
      <g>
          <path d="M6 0C9.3138 0 12 2.6862 12 6C12 9.31379 9.3138 12 6 12C4.93967 12.0017 3.898 11.7211 2.98201 11.187L0.00240844 12L0.813608 9.01919C0.279064 8.10292 -0.00176302 7.06079 8.32814e-06 6C8.32814e-06 2.6862 2.68621 0 6 0ZM3.95521 3.18L3.83521 3.1848C3.75752 3.18953 3.68159 3.20994 3.61201 3.2448C3.54692 3.28166 3.4875 3.32773 3.43561 3.3816C3.36361 3.4494 3.32281 3.5082 3.27901 3.5652C3.05708 3.85374 2.93759 4.20799 2.93941 4.572C2.94061 4.866 3.01741 5.1522 3.13741 5.4198C3.38281 5.961 3.78661 6.534 4.31941 7.065C4.44781 7.1928 4.57381 7.3212 4.70941 7.4406C5.37144 8.02347 6.16036 8.44382 7.0134 8.66819L7.3542 8.72039C7.4652 8.72639 7.5762 8.71799 7.6878 8.71259C7.86255 8.70357 8.03317 8.65626 8.1876 8.57399C8.26618 8.53352 8.34286 8.48948 8.4174 8.44199C8.4174 8.44199 8.4432 8.42519 8.4924 8.38799C8.5734 8.32799 8.6232 8.28539 8.6904 8.21519C8.7402 8.1636 8.7834 8.10299 8.8164 8.03399C8.8632 7.93619 8.91 7.74959 8.9292 7.59419C8.9436 7.47539 8.9394 7.4106 8.9376 7.3704C8.9352 7.3062 8.8818 7.2396 8.8236 7.2114L8.4744 7.0548C8.4744 7.0548 7.9524 6.8274 7.6332 6.6822C7.5998 6.66761 7.56401 6.65927 7.5276 6.6576C7.48655 6.65338 7.44507 6.658 7.40595 6.67114C7.36684 6.68429 7.33098 6.70565 7.3008 6.7338C7.2978 6.7326 7.2576 6.7668 6.8238 7.2924C6.7989 7.32585 6.76461 7.35114 6.72529 7.36503C6.68596 7.37892 6.64339 7.38079 6.603 7.3704C6.56392 7.35991 6.52562 7.34668 6.4884 7.3308C6.414 7.2996 6.3882 7.28759 6.3372 7.266C5.99284 7.11572 5.67402 6.91269 5.3922 6.6642C5.3166 6.5982 5.24641 6.5262 5.17441 6.4566C4.93836 6.23053 4.73264 5.9748 4.56241 5.6958L4.52701 5.6388C4.50158 5.6005 4.48102 5.55918 4.46581 5.5158C4.44301 5.4276 4.50241 5.3568 4.50241 5.3568C4.50241 5.3568 4.64821 5.1972 4.71601 5.1108C4.78201 5.0268 4.8378 4.9452 4.87381 4.887C4.9446 4.773 4.9668 4.656 4.92961 4.5654C4.76161 4.155 4.58761 3.7464 4.40881 3.3408C4.37341 3.2604 4.26841 3.2028 4.17301 3.1914C4.14061 3.1878 4.10821 3.1842 4.07581 3.1818C3.99523 3.17779 3.91449 3.1786 3.83401 3.1842L3.95461 3.1794L3.95521 3.18Z"/>
      </g>
  </symbol>


   <symbol id="iconСhecket"  viewBox="0 0 10 8">
      <g>
        <path d="M9 1L3.5 6.5L1 4" stroke="#F6F4F1" stroke-width="2" stroke-linecap="round" stroke-linejoin="round"/>
      </g>
  </symbol>


   <symbol id="iconShare"  viewBox="0 0 20 20">
      <g>
            <path d="M15 6.66675C16.3807 6.66675 17.5 5.54746 17.5 4.16675C17.5 2.78604 16.3807 1.66675 15 1.66675C13.6193 1.66675 12.5 2.78604 12.5 4.16675C12.5 5.54746 13.6193 6.66675 15 6.66675Z" stroke="#1A1A1A" stroke-width="1.5" stroke-linecap="round" stroke-linejoin="round"/>
            <path d="M5 12.5C6.38071 12.5 7.5 11.3807 7.5 10C7.5 8.61929 6.38071 7.5 5 7.5C3.61929 7.5 2.5 8.61929 2.5 10C2.5 11.3807 3.61929 12.5 5 12.5Z" stroke="#1A1A1A" stroke-width="1.5" stroke-linecap="round" stroke-linejoin="round"/>
            <path d="M15 18.3333C16.3807 18.3333 17.5 17.214 17.5 15.8333C17.5 14.4525 16.3807 13.3333 15 13.3333C13.6193 13.3333 12.5 14.4525 12.5 15.8333C12.5 17.214 13.6193 18.3333 15 18.3333Z" stroke="#1A1A1A" stroke-width="1.5" stroke-linecap="round" stroke-linejoin="round"/>
             <path d="M7.1582 11.2583L12.8499 14.575" stroke="#1A1A1A" stroke-width="1.5" stroke-linecap="round" stroke-linejoin="round"/>
             <path d="M12.8415 5.42505L7.1582 8.74172" stroke="#1A1A1A" stroke-width="1.5" stroke-linecap="round" stroke-linejoin="round"/>
      </g>
  </symbol>


   <symbol id="iconPlus" viewBox="0 0 20 20">
      <g>
          <path d="M10 4.16669V15.8334" stroke="#1A1A1A"   stroke-linecap="round" stroke-linejoin="round"/>
          <path d="M4.16602 10H15.8327" stroke="#1A1A1A"   stroke-linecap="round" stroke-linejoin="round"/>
      </g>
  </symbol>

   <symbol id="iconMinus" viewBox="0 0 20 20">
      <g>
        <path d="M4.16602 10H15.8327" stroke="#1A1A1A"  stroke-linecap="round" stroke-linejoin="round"/>
      </g>
  </symbol>


   <symbol id="iconOK" viewBox="0 0 25 24">
      <g>
            <path d="M0.5 11.5192C0.5 6.09084 0.5 3.37667 2.18833 1.68833C3.87667 0 6.59084 0 12.0192 0H12.9808C18.4092 0 21.1233 0 22.8117 1.68833C24.5 3.37667 24.5 6.09084 24.5 11.5192V12.4808C24.5 17.9092 24.5 20.6233 22.8117 22.3117C21.1233 24 18.4092 24 12.9808 24H12.0192C6.59084 24 3.87667 24 2.18833 22.3117C0.5 20.6233 0.5 17.9092 0.5 12.4808V11.5192Z" fill="#FF7700"/>
          <path d="M12.5 11.9358C13.6754 11.9358 14.7334 11.4657 15.5027 10.6963C16.2721 9.92694 16.7422 8.85837 16.7422 7.69362C16.7422 6.51819 16.2721 5.46031 15.5027 4.69095C14.7334 3.92159 13.6754 3.45142 12.5 3.45142C11.3246 3.45142 10.2667 3.92159 9.49738 4.69095C8.72802 5.46031 8.25781 6.51819 8.25781 7.69362C8.25781 8.86906 8.72802 9.92694 9.49738 10.6963C10.2667 11.455 11.3246 11.9358 12.5 11.9358ZM11.143 6.32586C11.4956 5.97322 11.9765 5.75951 12.5 5.75951C13.0343 5.75951 13.5152 5.97322 13.8571 6.32586C14.2097 6.6785 14.4235 7.15934 14.4235 7.68294C14.4235 8.20653 14.2097 8.69806 13.8571 9.04001C13.5045 9.39265 13.0236 9.60636 12.5 9.60636C11.9658 9.60636 11.4849 9.39265 11.143 9.04001C10.7903 8.68737 10.5766 8.20653 10.5766 7.68294C10.5766 7.15934 10.7903 6.6785 11.143 6.32586Z" fill="white"/>
          <path d="M18.207 13.6456L16.9568 11.9466C16.882 11.8505 16.7538 11.8398 16.6576 11.9145C15.4822 12.919 14.0396 13.5601 12.4902 13.5601C10.9408 13.5601 9.49822 12.9083 8.32278 11.9145C8.23733 11.8398 8.09839 11.8505 8.02358 11.9466L6.78406 13.6456C6.71994 13.7311 6.74131 13.8486 6.81613 13.9128C7.86331 14.7676 9.08145 15.334 10.3531 15.6332L7.72438 20.2601C7.6603 20.3883 7.75644 20.5486 7.90606 20.5486H10.4813C10.5561 20.5486 10.6309 20.5058 10.663 20.431L12.5009 16.3277L14.3388 20.431C14.3709 20.5058 14.4457 20.5486 14.5205 20.5486H17.0957C17.2453 20.5486 17.3415 20.3883 17.2667 20.2601L14.638 15.6332C15.9096 15.334 17.1171 14.7676 18.1643 13.9128C18.2498 13.8486 18.2605 13.7311 18.207 13.6456Z" fill="white"/>
      </g>
  </symbol>


  <symbol id="iconCopy" viewBox="0 0 21 20">
      <g>
           <path d="M17.1667 7.5H9.66667C8.74619 7.5 8 8.24619 8 9.16667V16.6667C8 17.5871 8.74619 18.3333 9.66667 18.3333H17.1667C18.0871 18.3333 18.8333 17.5871 18.8333 16.6667V9.16667C18.8333 8.24619 18.0871 7.5 17.1667 7.5Z" stroke="#1A1A1A" stroke-linecap="round" stroke-linejoin="round"/>
            <path d="M4.66602 12.5001H3.83268C3.39065 12.5001 2.96673 12.3245 2.65417 12.0119C2.34161 11.6994 2.16602 11.2754 2.16602 10.8334V3.33341C2.16602 2.89139 2.34161 2.46746 2.65417 2.1549C2.96673 1.84234 3.39065 1.66675 3.83268 1.66675H11.3327C11.7747 1.66675 12.1986 1.84234 12.5112 2.1549C12.8238 2.46746 12.9993 2.89139 12.9993 3.33341V4.16675" stroke="#1A1A1A" stroke-linecap="round" stroke-linejoin="round"/>
      </g>
  </symbol>





  <symbol id="iconBin"  viewBox="0 0 20 20">
      <g>
          <path d="M2.5 5H4.16667H17.5" stroke="#1A1A1A" stroke-width="1.5" stroke-linecap="round" stroke-linejoin="round"/>
          <path d="M15.8346 5.00008V16.6667C15.8346 17.1088 15.659 17.5327 15.3465 17.8453C15.0339 18.1578 14.61 18.3334 14.168 18.3334H5.83464C5.39261 18.3334 4.96868 18.1578 4.65612 17.8453C4.34356 17.5327 4.16797 17.1088 4.16797 16.6667V5.00008M6.66797 5.00008V3.33341C6.66797 2.89139 6.84356 2.46746 7.15612 2.1549C7.46869 1.84234 7.89261 1.66675 8.33464 1.66675H11.668C12.11 1.66675 12.5339 1.84234 12.8465 2.1549C13.159 2.46746 13.3346 2.89139 13.3346 3.33341V5.00008" stroke="#1A1A1A" stroke-width="1.5" stroke-linecap="round" stroke-linejoin="round"/>
          <path d="M8.33203 9.16675V14.1667" stroke="#1A1A1A" stroke-width="1.5" stroke-linecap="round" stroke-linejoin="round"/>
          <path d="M11.668 9.16675V14.1667" stroke="#1A1A1A" stroke-width="1.5" stroke-linecap="round" stroke-linejoin="round"/>
      </g>
  </symbol>


















</svg>